<?xml version="1.0" encoding="UTF-8"?>
<svg xmlns="http://www.w3.org/2000/svg" viewBox="0 0 512 512" width="512" height="512"><g id="Solid"><circle cx="76" cy="398.39399" r="16"/><circle cx="108" cy="374.39399" r="16"/><circle cx="140" cy="398.39399" r="16"/><ellipse cx="108" cy="434.39399" rx="24" ry="28"/><circle cx="216" cy="398.39399" r="16"/><circle cx="248" cy="374.39399" r="16"/><circle cx="280" cy="398.39399" r="16"/><ellipse cx="248" cy="434.39399" rx="24" ry="28"/><path d="M305.96094,58.95649a7.37113,7.37113,0,0,1,5.61328-2.94434,6.64734,6.64734,0,0,1,6.07373,3.8877c1.06592,2.57324.31494,6.31152-2.11426,10.5249a4.00009,4.00009,0,1,0,6.93067,3.99609c3.75244-6.50927,4.64306-12.58935,2.57421-17.58251a14.63648,14.63648,0,0,0-13.46435-8.82618,15.20683,15.20683,0,0,0-11.68164,5.73145,4,4,0,0,0,6.06836,5.21289Z"/><circle cx="264" cy="90.39399" r="8"/><path d="M486.13,214.934a15.76465,15.76465,0,0,0-17.45,3.46L440,247.074l-57.64-57.63c-7.52-15.66-16.19-27.88-25.78-36.37-3.28-22.09-8.08-50.5-12.99-65.21A105.47908,105.47908,0,0,0,339.17,76.644c4.81-12.09,4.89-28.54-9.76-38.93a30.56173,30.56173,0,0,0-36.82995.95c-10.51-2.84-22.8-4.27-36.58-4.27a88.80019,88.80019,0,0,0-22.68,2.79,30.69113,30.69113,0,0,0-35.46,1.07,30.00392,30.00392,0,0,0-11.23,17.36,34.19583,34.19583,0,0,0,1.32,18.78H172.28A22.6111,22.6111,0,0,0,155.41,112.074c-3.37,17.07-3.07995,38.93,7.32,52.73a32.91061,32.91061,0,0,0,9.86005,8.82,87.71853,87.71853,0,0,0-10.11005,3.94L83.32,98.394a16.00626,16.00626,0,0,0-22.64,0L32,127.074a16.03048,16.03048,0,0,0,0,22.64l77.09,77.08c-11.73,19.95-15.19,40.01-9.72,56.91,4.85,14.99,16.13,26.67,33.56,34.77a89.96735,89.96735,0,0,0-4.2,20.09c-1.58-.11-3.16-.17-4.73-.17H108a64.07211,64.07211,0,0,0-64,64v16a64.07215,64.07215,0,0,0,64,64H336c22.98,0,41.42-7.27,54.8-21.61,19.48-20.85,27.8-55.7,25.38-106.39H480a16.02123,16.02123,0,0,0,16-16V229.704A15.73422,15.73422,0,0,0,486.13,214.934ZM205.08008,47.831a18.87234,18.87234,0,0,1,17.85449-2.605,61.90507,61.90507,0,0,0-24.7229,21.09375C196.73956,57.79829,200.38208,51.37977,205.08008,47.831ZM192,182.394h3.27472a46.902,46.902,0,0,0,10.93622,7.57764,4,4,0,1,0,3.57812-7.15528,38.30466,38.30466,0,0,1-11.613-8.87811,21.53729,21.53729,0,0,0,8.19329-2.81146A47.57548,47.57548,0,0,0,224,174.394c19.23779,0,28-10.36719,28-20a4,4,0,0,0-8,0c0,7.87793-10.061,12-20,12a39.07438,39.07438,0,0,1-16.48389-3.4566c-.04223-.01966-.08294-.04157-.12567-.05964C200.77612,159.68812,196,154.27344,196,146.394a4,4,0,0,0-8,0,24.42343,24.42343,0,0,0,9.42389,19.584A31.72768,31.72768,0,0,1,192,166.394c-8.62695,0-14.9873-2.77881-19.4458-8.49561-7.59265-9.73559-8.32794-27.22131-5.64069-42.08819l5.45026,3.6336a20.05325,20.05325,0,0,0,23.00391-.5708l.00537-.0039a4,4,0,0,0,.60547-6.15381l-5.14991-5.1499a1.64054,1.64054,0,0,1,0-2.34278,1.65743,1.65743,0,0,1,2.34278,0l6.29,6.29a4.00254,4.00254,0,0,0,5.26611.34326A18.419,18.419,0,0,0,209.21881,86.431c13.50641.38556,20.22882,7.06732,27.95258,14.79156a4.00026,4.00026,0,0,0,5.65722-5.65722C234.77979,87.51655,225.65674,78.394,208,78.394h-7.6452c6.695-13.86945,21.90179-32,55.6452-32a132.317,132.317,0,0,1,31.90814,3.47375,41.08978,41.08978,0,0,0-3.622,7.0409,3.99989,3.99989,0,0,0,7.42774,2.9707c4.00586-10.01416,11.18994-15.79736,19.71093-15.8667a18.60441,18.60441,0,0,1,17.28077,11.228c3.90136,9.31152-.30274,21.09375-11.53418,32.32471a4.00026,4.00026,0,0,0,5.65722,5.65722,67.71687,67.71687,0,0,0,6.95612-8.096c.84039,2.0398,1.64465,4.20545,2.42035,6.53254,3.39831,10.194,7.46264,30.27038,11.57525,57.05871A47.63233,47.63233,0,0,0,320,142.394a4,4,0,0,0,0,8c11.762,0,22.57458,5.10437,32.34839,15.20953a28.00124,28.00124,0,0,0-36.14771,2.93256l-28.26574,28.26575c-4.97669-7.38776-14.13636-12.02942-25.306-12.02942a41.12866,41.12866,0,0,0-28.84375,12.022C227.49609,203.07954,220,214.70454,220,234.394a52.55348,52.55348,0,0,0,.4516,6.79437l-52.79718-52.79718C176.20428,184.46076,184.53662,182.394,192,182.394Zm-81.16309,97.7666c-4.555-13.88061-1.30175-30.838,9.12043-48.152L142.593,254.64423a4.00251,4.00251,0,1,0,3.06225,7.39136c33.86182-15.39307,48.96973-3.228,53.89307,2.71631,8.38135,10.11865,8.66895,25.687.68359,37.01758-4.86084,6.896-19.937,21.56592-54.86474,8.86523C126.88525,303.914,115.26758,293.66108,110.83691,280.16059Zm271.19434,172.4375C371.00391,464.40668,355.5166,470.394,336,470.394H277.87a60.05386,60.05386,0,0,0,19.37316-17.71143,4.00012,4.00012,0,0,0-6.56152-4.57715A52.00378,52.00378,0,0,1,196,418.394v-16a52.00378,52.00378,0,0,1,94.68164-29.71143,4.00012,4.00012,0,1,0,6.56152-4.57715,60.03585,60.03585,0,0,0-13.22381-13.67163,52.08506,52.08506,0,0,1,22.66229,18.24878,4.00012,4.00012,0,1,0,6.56152-4.57715A60.02312,60.02312,0,0,0,299.87,354.33405c13.90972-3.49316,30.59594-2.23474,42.34143,3.63758a3.99981,3.99981,0,1,0,3.57714-7.15528c-15.61584-7.80768-37.88873-8.56134-54.89715-2.02612A59.9347,59.9347,0,0,0,264,342.394H248a60.06812,60.06812,0,0,0-60,60v16a60.02273,60.02273,0,0,0,30.12518,52H137.87a60.05386,60.05386,0,0,0,19.37316-17.71143,4.00012,4.00012,0,0,0-6.56152-4.57715A52.00378,52.00378,0,0,1,56,418.394v-16a52.00378,52.00378,0,0,1,94.68164-29.71143,4.00012,4.00012,0,1,0,6.56152-4.57715,60.02507,60.02507,0,0,0-13.2528-13.68359,52.0849,52.0849,0,0,1,22.69128,18.26074,4.00012,4.00012,0,1,0,6.56152-4.57715,60.09834,60.09834,0,0,0-32.93463-23.42059,79.81223,79.81223,0,0,1,5.13507-25.56836,79.97278,79.97278,0,0,0,24.99878,4.38886c12.17823-.00037,22.65711-3.59082,30.45716-10.55457l11.30114,11.30115a28.03229,28.03229,0,0,0,39.59864,0l24.68078-24.68079c1.96662.86176,3.9693,1.71064,6.03455,2.53675a284.6967,284.6967,0,0,0,60.95654,16.251,4,4,0,0,0,1.05811-7.92968C343.36426,310.27338,228,294.15571,228,234.394c0-13.416,3.95605-24.46143,11.43994-31.94092a33.07342,33.07342,0,0,1,23.189-9.68066c10.293,0,21.37109,5.51465,21.37109,17.62158,0,8.8623,2.78125,16.03418,8.26709,21.31592,11.63916,11.20849,32.353,10.42334,41.19727,10.09082,1.12011-.04267,2.05047-.07874,2.75079-.08008a3.97618,3.97618,0,0,1,2.613,1.15869l52.68653,52.68652a4.00385,4.00385,0,0,1,0,5.65625l-28.68653,28.68653a12.00014,12.00014,0,0,0,8.48536,20.48535h32.63476C406.91174,400.17853,399.73505,433.63929,382.03125,452.59809Z"/></g></svg>
